HIERARCHY
ROOT Hips
{
	OFFSET 0.000000 0.000000 0.000000
	CHANNELS 6 Xposition Yposition Zposition Xrotation Yrotation Zrotation
	JOINT LeftUpLeg_virtual
	{
		OFFSET 0.000000 0.000000 0.000000
		CHANNELS 3 Xrotation Yrotation Zrotation
		JOINT LeftUpLeg
		{
			OFFSET 11.394100 -6.187798 -0.413800
			CHANNELS 3 Xrotation Yrotation Zrotation
			JOINT LeftLeg
			{
				OFFSET 0.430247 -32.302673 3.732800
				CHANNELS 3 Xrotation Yrotation Zrotation
				JOINT LeftFoot
				{
					OFFSET -0.430247 -48.264931 -6.423300
					CHANNELS 3 Xrotation Yrotation Zrotation
					JOINT LeftToeBase
					{
						OFFSET 4.230900 -16.068199 23.438400
						CHANNELS 3 Xrotation Yrotation Zrotation
						JOINT LeftToe_End
						{
							OFFSET 4.510700 0.695400 19.974600
							CHANNELS 3 Xrotation Yrotation Zrotation
							End Site
							{
								OFFSET 0 0 0
							}
						}
					}
				}
			}
		}
	}
	JOINT RightUpLeg_virtual
	{
		OFFSET 0.000000 0.000000 0.000000
		CHANNELS 3 Xrotation Yrotation Zrotation
		JOINT RightUpLeg
		{
			OFFSET -11.333700 -6.187798 -0.413800
			CHANNELS 3 Xrotation Yrotation Zrotation
			JOINT RightLeg
			{
				OFFSET -0.430392 -32.302628 3.733000
				CHANNELS 3 Xrotation Yrotation Zrotation
				JOINT RightFoot
				{
					OFFSET 0.430392 -48.264973 -6.423500
					CHANNELS 3 Xrotation Yrotation Zrotation
					JOINT RightToeBase
					{
						OFFSET -4.230900 -16.068199 23.438400
						CHANNELS 3 Xrotation Yrotation Zrotation
						JOINT RightToe_End
						{
							OFFSET -4.510700 0.695400 19.974600
							CHANNELS 3 Xrotation Yrotation Zrotation
							End Site
							{
								OFFSET 0 0 0
							}
						}
					}
				}
			}
		}
	}
	JOINT Spine_virtual
	{
		OFFSET 0.000000 0.000000 0.000000
		CHANNELS 3 Xrotation Yrotation Zrotation
		JOINT Spine
		{
			OFFSET -0.002400 12.777504 0.315300
			CHANNELS 3 Xrotation Yrotation Zrotation
			JOINT Spine1
			{
				OFFSET -0.002067 5.816869 0.032633
				CHANNELS 3 Xrotation Yrotation Zrotation
				JOINT Spine1_split
				{
					OFFSET -0.002067 5.816869 0.032633
					CHANNELS 3 Xrotation Yrotation Zrotation
					JOINT Spine2
					{
						OFFSET -0.002067 5.816869 0.032633
						CHANNELS 3 Xrotation Yrotation Zrotation
						JOINT Neck_virtual
						{
							OFFSET 0.000000 0.000000 0.000000
							CHANNELS 3 Xrotation Yrotation Zrotation
							JOINT Neck
							{
								OFFSET -0.003700 21.199493 -0.826900
								CHANNELS 3 Xrotation Yrotation Zrotation
								JOINT Head
								{
									OFFSET 0.000000 20.442200 4.834800
									CHANNELS 3 Xrotation Yrotation Zrotation
									JOINT HeadTop_End
									{
										OFFSET 0.000000 34.668396 4.968400
										CHANNELS 3 Xrotation Yrotation Zrotation
										End Site
										{
											OFFSET 0 0 0
										}
									}
								}
							}
						}
						JOINT LeftShoulder_virtual
						{
							OFFSET 0.000000 0.000000 0.000000
							CHANNELS 3 Xrotation Yrotation Zrotation
							JOINT LeftShoulder
							{
								OFFSET 3.288150 8.794197 -1.372250
								CHANNELS 3 Xrotation Yrotation Zrotation
								JOINT LeftShoulder_split
								{
									OFFSET 3.288150 8.794197 -1.372250
									CHANNELS 3 Xrotation Yrotation Zrotation
									JOINT LeftArm
									{
										OFFSET 11.953299 -2.279007 -0.146200
										CHANNELS 3 Xrotation Yrotation Zrotation
										JOINT LeftForeArm
										{
											OFFSET 18.448900 0.000000 0.000000
											CHANNELS 3 Xrotation Yrotation Zrotation
											JOINT LeftHand
											{
												OFFSET 29.527798 0.000000 0.000000
												CHANNELS 3 Xrotation Yrotation Zrotation
												End Site
												{
													OFFSET 0 0 0
												}
											}
										}
									}
								}
							}
						}
						JOINT RightShoulder_virtual
						{
							OFFSET 0.000000 0.000000 0.000000
							CHANNELS 3 Xrotation Yrotation Zrotation
							JOINT RightShoulder
							{
								OFFSET -3.249400 8.794197 -1.372250
								CHANNELS 3 Xrotation Yrotation Zrotation
								JOINT RightShoulder_split
								{
									OFFSET -3.249400 8.794197 -1.372250
									CHANNELS 3 Xrotation Yrotation Zrotation
									JOINT RightArm
									{
										OFFSET -11.953299 -2.279007 -0.146200
										CHANNELS 3 Xrotation Yrotation Zrotation
										JOINT RightForeArm
										{
											OFFSET -18.448900 0.000000 0.000000
											CHANNELS 3 Xrotation Yrotation Zrotation
											JOINT RightHand
											{
												OFFSET -29.527802 0.000000 0.000000
												CHANNELS 3 Xrotation Yrotation Zrotation
												End Site
												{
													OFFSET 0 0 0
												}
											}
										}
									}
								}
							}
						}
					}
				}
			}
		}
	}
}
MOTION
Frames: 9
Frame Time: 0.03333333
-0.730205 99.878662 -3.608545 0.000000 0.000000 0.000000 -5.111997 -3.725781 0.271743 -9.242438 4.546369 8.016472 20.331197 9.302250 0.362883 -3.127814 3.593444 -6.347629 1.655109 -0.060131 -0.738797 0.000000 0.000000 0.000000 -4.906534 -3.054227 0.230076 -8.364161 -9.466513 -7.931660 20.296013 -8.800782 -0.548299 -3.707554 -5.411747 5.633941 -1.748185 0.061540 0.015801 0.000000 0.000000 0.000000 -4.956960 -3.431271 -0.053095 4.560618 1.515459 -2.204854 1.244322 0.391879 0.161157 0.771612 -0.867423 0.073508 0.000000 0.000000 0.000000 0.607945 0.674875 0.075467 2.170433 -0.573335 -0.100531 18.795619 -10.559349 0.472884 0.000000 0.000000 0.000000 0.486685 0.544683 0.047538 2.575033 -4.044099 -11.762766 -1.241505 -0.666376 -1.904244 -3.185485 -8.298701 -58.429379 -1.236435 -11.278233 0.373008 0.000000 0.000000 0.000000 0.495055 0.413098 0.158439 2.730830 1.163258 15.541785 -1.299775 1.108490 -1.711210 -1.144259 9.093155 64.067502 -0.287039 14.734204 1.324272 0.000000 0.000000 0.000000 
-0.701014 99.906670 -3.862473 0.000000 0.000000 0.000000 -5.215597 -3.626442 0.294287 -9.396833 4.448376 8.000487 20.489637 9.208719 0.374284 -2.977818 3.395943 -6.433027 1.572660 -0.062760 -0.699562 0.000000 0.000000 0.000000 -5.026851 -2.882835 0.251665 -8.215782 -9.493890 -7.883123 20.206216 -8.769551 -0.612242 -3.775093 -5.488376 5.618612 -1.420361 0.053523 0.011630 0.000000 0.000000 0.000000 -5.055285 -3.161315 0.040066 4.582687 1.610446 -2.131012 1.262988 0.422484 0.136622 0.821598 -0.627052 0.152951 0.000000 0.000000 0.000000 0.558285 0.681855 0.074608 2.194760 -0.631956 -0.100967 18.769981 -10.645801 0.571140 0.000000 0.000000 0.000000 0.492391 0.567259 0.013471 2.521230 -3.927853 -11.862466 -1.377537 -0.235287 -2.128766 -2.385382 -7.656195 -58.300364 -1.223831 -10.688275 0.426584 0.000000 0.000000 0.000000 0.530067 0.457400 0.136483 2.721310 1.318464 15.527916 -1.379463 1.505623 -1.886992 -1.890098 9.379664 64.068759 -0.214411 15.375837 1.161367 0.000000 0.000000 0.000000 
-0.731368 99.877411 -4.171074 0.000000 0.000000 0.000000 -5.405986 -3.167380 0.413172 -9.784020 4.330396 7.906383 20.879163 9.059590 0.378726 -2.921358 3.019267 -6.386306 1.475032 -0.074506 -0.638964 0.000000 0.000000 0.000000 -5.239964 -2.322091 0.359661 -7.996237 -9.522371 -7.792568 20.427231 -8.776102 -0.662799 -4.106689 -5.830994 5.533760 -1.245411 0.033907 -0.019787 0.000000 0.000000 0.000000 -5.294825 -2.626183 0.176284 4.728782 1.764791 -2.021295 1.284610 0.471052 0.124883 0.869108 -0.553296 0.199989 0.000000 0.000000 0.000000 0.517302 0.711208 0.088644 2.163827 -0.727946 -0.089156 18.707808 -10.944206 0.762290 0.000000 0.000000 0.000000 0.516309 0.606396 -0.006726 2.467734 -3.869289 -11.978043 -1.568324 -0.079096 -2.146627 -1.353470 -6.530033 -58.335000 -1.088785 -9.726172 0.524037 0.000000 0.000000 0.000000 0.583683 0.522917 0.127541 2.694369 1.521749 15.579378 -1.272511 1.629930 -1.954586 -2.939929 10.212078 63.767445 -0.122621 16.416795 1.006207 0.000000 0.000000 0.000000 
-0.824111 99.816605 -4.478138 0.000000 0.000000 0.000000 -5.658695 -2.431093 0.595107 -10.316712 4.201734 7.760364 21.451486 8.870093 0.387941 -2.983470 2.536901 -6.218050 1.395544 -0.092475 -0.580775 0.000000 0.000000 0.000000 -5.532995 -1.506284 0.536930 -7.717120 -9.543291 -7.677437 20.887753 -8.815154 -0.698037 -4.664040 -6.400230 5.362976 -1.197231 0.001307 -0.057692 0.000000 0.000000 0.000000 -5.628889 -1.929749 0.337401 4.967353 1.965569 -1.905340 1.298669 0.531973 0.124751 0.904258 -0.549245 0.208936 0.000000 0.000000 0.000000 0.494443 0.759677 0.114030 2.079897 -0.847642 -0.072386 18.633161 -11.417571 1.021248 0.000000 0.000000 0.000000 0.560414 0.659192 -0.005295 2.435081 -3.864980 -12.076388 -1.678939 -0.232343 -2.010002 -0.251490 -5.147847 -58.496178 -0.871108 -8.658150 0.624974 0.000000 0.000000 0.000000 0.646009 0.599154 0.133924 2.654950 1.733891 15.717466 -1.076393 1.500149 -1.901348 -4.014989 11.302641 63.246445 -0.021252 17.674714 0.881355 0.000000 0.000000 0.000000 
-0.944293 99.730965 -4.800005 0.000000 0.000000 0.000000 -5.955897 -1.547463 0.804092 -10.899016 4.072484 7.610371 22.112461 8.653973 0.408773 -3.140362 2.027270 -5.997885 1.356486 -0.112169 -0.541929 0.000000 0.000000 0.000000 -5.883828 -0.604450 0.749283 -7.441908 -9.536153 -7.548696 21.487133 -8.876059 -0.710557 -5.309309 -7.114310 5.099420 -1.149325 -0.037470 -0.086668 0.000000 0.000000 0.000000 -6.030806 -1.162190 0.515704 5.249339 2.202877 -1.808579 1.301416 0.602710 0.136943 0.916172 -0.530273 0.208184 0.000000 0.000000 0.000000 0.497096 0.824596 0.148659 1.980243 -0.984900 -0.056295 18.579182 -12.013001 1.321949 0.000000 0.000000 0.000000 0.617631 0.725122 0.014115 2.434113 -3.886427 -12.157674 -1.681420 -0.494731 -1.802215 0.850533 -3.659550 -58.757863 -0.631981 -7.644578 0.676184 0.000000 0.000000 0.000000 0.705189 0.677510 0.154262 2.619378 1.931484 15.925908 -0.831112 1.330438 -1.842544 -4.952332 12.353308 62.673433 0.062276 19.092211 0.815757 0.000000 0.000000 0.000000 
-1.073430 99.639664 -5.080538 0.000000 0.000000 0.000000 -6.266906 -0.660309 1.006607 -11.437600 3.960548 7.499650 22.761436 8.432780 0.428245 -3.380192 1.567379 -5.784570 1.366168 -0.129625 -0.526984 0.000000 0.000000 0.000000 -6.255227 0.247306 0.961460 -7.215888 -9.507722 -7.424434 22.127503 -8.934310 -0.686386 -5.835536 -7.868662 4.814576 -1.051935 -0.070394 -0.098819 0.000000 0.000000 0.000000 -6.440837 -0.396788 0.699175 5.532430 2.461575 -1.746524 1.283907 0.679720 0.158328 0.955366 -0.521387 0.147256 0.000000 0.000000 0.000000 0.518103 0.904418 0.187479 1.908806 -1.125097 -0.048405 18.566039 -12.676907 1.650791 0.000000 0.000000 0.000000 0.676271 0.802881 0.051401 2.461987 -3.910776 -12.181647 -1.642910 -0.759125 -1.639432 1.921366 -2.224284 -59.039759 -0.433937 -6.787279 0.653765 0.000000 0.000000 0.000000 0.755840 0.754660 0.186320 2.597270 2.111805 16.157492 -0.582078 1.220943 -1.788294 -5.644101 13.166168 62.198079 0.115212 20.606310 0.818684 0.000000 0.000000 0.000000 
-1.199844 99.565048 -5.321291 0.000000 0.000000 0.000000 -6.573497 0.136728 1.174586 -11.900241 3.888151 7.453452 23.335082 8.229564 0.428759 -3.664919 1.191640 -5.605202 1.396991 -0.141366 -0.522888 0.000000 0.000000 0.000000 -6.624169 0.993184 1.148183 -7.044913 -9.451383 -7.306605 22.669229 -8.968008 -0.643457 -6.085283 -8.595744 4.629670 -1.004012 -0.087412 -0.105476 0.000000 0.000000 0.000000 -6.840041 0.333538 0.873338 5.783910 2.726864 -1.718676 1.249861 0.765136 0.186082 0.992767 -0.516951 0.112777 0.000000 0.000000 0.000000 0.551139 0.993006 0.230906 1.892680 -1.257004 -0.048152 18.594493 -13.373867 2.005021 0.000000 0.000000 0.000000 0.728054 0.888194 0.098049 2.506366 -3.945207 -12.130184 -1.619355 -0.959865 -1.572718 3.030112 -0.887496 -59.275715 -0.309224 -6.135994 0.576081 0.000000 0.000000 0.000000 0.788822 0.829971 0.217953 2.579202 2.282389 16.355622 -0.360558 1.188743 -1.767147 -6.145213 13.652754 61.926737 0.143366 22.138750 0.850423 0.000000 0.000000 0.000000 
-1.320513 99.507797 -5.527987 0.000000 0.000000 0.000000 -6.865520 0.806325 1.299625 -12.246964 3.858725 7.486619 23.821489 8.042550 0.398295 -3.976292 0.913842 -5.476031 1.421753 -0.142762 -0.521266 0.000000 0.000000 0.000000 -6.951015 1.614555 1.292577 -6.905130 -9.345287 -7.197547 22.981660 -8.954471 -0.615218 -6.046241 -9.239915 4.602800 -1.058021 -0.086577 -0.111488 0.000000 0.000000 0.000000 -7.203920 1.001041 1.022964 5.983439 2.986181 -1.718078 1.217577 0.857007 0.214467 0.985359 -0.520155 0.116236 0.000000 0.000000 0.000000 0.576586 1.083398 0.273642 1.940096 -1.373517 -0.060935 18.619815 -14.078687 2.381527 0.000000 0.000000 0.000000 0.768634 0.977362 0.141819 2.547156 -4.017020 -11.989267 -1.590226 -1.055575 -1.628557 4.177110 0.331754 -59.479733 -0.260934 -5.763131 0.476569 0.000000 0.000000 0.000000 0.804275 0.909073 0.243211 2.568735 2.452274 16.468170 -0.189339 1.214327 -1.740838 -6.481027 13.908163 61.853688 0.149839 23.617932 0.894768 0.000000 0.000000 0.000000 
-1.419937 99.478416 -5.727301 0.000000 0.000000 0.000000 -7.127392 1.369161 1.376697 -12.495196 3.841313 7.573726 24.251563 7.864390 0.341164 -4.293579 0.743775 -5.394772 1.446509 -0.133888 -0.516499 0.000000 0.000000 0.000000 -7.211406 2.137611 1.378770 -6.730738 -9.215634 -7.108985 23.048938 -8.909832 -0.610873 -5.825392 -9.781770 4.705629 -1.136330 -0.066484 -0.107636 0.000000 0.000000 0.000000 -7.480855 1.594415 1.150033 6.137734 3.222534 -1.725381 1.190106 0.948014 0.235911 0.953709 -0.501296 0.134999 0.000000 0.000000 0.000000 0.575879 1.166110 0.309330 2.012165 -1.470206 -0.089873 18.568916 -14.762457 2.781949 0.000000 0.000000 0.000000 0.794679 1.063134 0.176128 2.567981 -4.146706 -11.774403 -1.538208 -1.053368 -1.771406 5.298045 1.405085 -59.689290 -0.241178 -5.718161 0.397674 0.000000 0.000000 0.000000 0.819980 0.992338 0.261365 2.564030 2.638840 16.475104 -0.145342 1.235361 -1.640272 -6.673425 14.080619 61.891076 0.158673 24.932277 0.936187 0.000000 0.000000 0.000000 
